REM DIRINDEX 1\2\4,1\2\5,1\2\6,1\3\7,1\3\8
REM DIRNAME folder01,folder02,folder03,folder04,folder05,folder06,folder07,folder08
TITLE ""
FILE "017_Lesson 14_Output_Stage.mp3" MP3
  TRACK 01 AUDIO
    TITLE "0:"
    INDEX 01 00:00:00
  TRACK 02 AUDIO
    TITLE "8:cjc128_3038"
    INDEX 01 00:00:09
  TRACK 03 AUDIO
    TITLE "0:"
    INDEX 01 00:03:00
  TRACK 04 AUDIO
    TITLE "8:cjc128_3039"
    INDEX 01 00:03:39
  TRACK 05 AUDIO
    TITLE "0:"
    INDEX 01 00:04:60
  TRACK 06 AUDIO
    TITLE "7:cjc128_3040"
    INDEX 01 00:05:36
  TRACK 07 AUDIO
    TITLE "0:"
    INDEX 01 00:09:12
  TRACK 08 AUDIO
    TITLE "8:cjc128_3041"
    INDEX 01 00:13:22
  TRACK 09 AUDIO
    TITLE "0:"
    INDEX 01 00:15:07
  TRACK 10 AUDIO
    TITLE "7:cjc128_3042"
    INDEX 01 00:15:64
  TRACK 11 AUDIO
    TITLE "0:"
    INDEX 01 00:18:05
  TRACK 12 AUDIO
    TITLE "8:cjc128_3043"
    INDEX 01 00:20:67
  TRACK 13 AUDIO
    TITLE "0:"
    INDEX 01 00:22:64
  TRACK 14 AUDIO
    TITLE "7:cjc128_3044"
    INDEX 01 00:23:42
  TRACK 15 AUDIO
    TITLE "0:"
    INDEX 01 00:26:42
  TRACK 16 AUDIO
    TITLE "8:cjc128_3045"
    INDEX 01 00:30:12
  TRACK 17 AUDIO
    TITLE "0:"
    INDEX 01 00:31:61
  TRACK 18 AUDIO
    TITLE "7:cjc128_3046"
    INDEX 01 00:32:41
  TRACK 19 AUDIO
    TITLE "0:"
    INDEX 01 00:34:63
  TRACK 20 AUDIO
    TITLE "8:cjc128_3047"
    INDEX 01 00:37:59
  TRACK 21 AUDIO
    TITLE "0:"
    INDEX 01 00:39:39
  TRACK 22 AUDIO
    TITLE "7:cjc128_3048"
    INDEX 01 00:40:24
  TRACK 23 AUDIO
    TITLE "0:"
    INDEX 01 00:43:21
  TRACK 24 AUDIO
    TITLE "8:cjc128_3049"
    INDEX 01 00:47:03
  TRACK 25 AUDIO
    TITLE "0:"
    INDEX 01 00:48:65
  TRACK 26 AUDIO
    TITLE "7:cjc128_3050"
    INDEX 01 00:49:53
  TRACK 27 AUDIO
    TITLE "0:"
    INDEX 01 00:52:55
  TRACK 28 AUDIO
    TITLE "8:cjc128_3051"
    INDEX 01 00:56:39
  TRACK 29 AUDIO
    TITLE "0:"
    INDEX 01 00:58:17
  TRACK 30 AUDIO
    TITLE "7:cjc128_3052"
    INDEX 01 00:58:66
  TRACK 31 AUDIO
    TITLE "0:"
    INDEX 01 01:00:59
  TRACK 32 AUDIO
    TITLE "8:cjc128_3053"
    INDEX 01 01:03:04
  TRACK 33 AUDIO
    TITLE "0:"
    INDEX 01 01:04:64
  TRACK 34 AUDIO
    TITLE "7:cjc128_3054"
    INDEX 01 01:05:48
  TRACK 35 AUDIO
    TITLE "0:"
    INDEX 01 01:07:55
  TRACK 36 AUDIO
    TITLE "8:cjc128_3055"
    INDEX 01 01:10:31
  TRACK 37 AUDIO
    TITLE "0:"
    INDEX 01 01:12:01
  TRACK 38 AUDIO
    TITLE "7:cjc128_3056"
    INDEX 01 01:12:60
  TRACK 39 AUDIO
    TITLE "0:"
    INDEX 01 01:14:55
  TRACK 40 AUDIO
    TITLE "8:cjc128_3057"
    INDEX 01 01:17:18
  TRACK 41 AUDIO
    TITLE "0:"
    INDEX 01 01:19:01
  TRACK 42 AUDIO
    TITLE "7:cjc128_3058"
    INDEX 01 01:19:56
  TRACK 43 AUDIO
    TITLE "0:"
    INDEX 01 01:22:60
  TRACK 44 AUDIO
    TITLE "8:cjc128_3059"
    INDEX 01 01:26:32
  TRACK 45 AUDIO
    TITLE "0:"
    INDEX 01 01:28:00
  TRACK 46 AUDIO
    TITLE "7:cjc128_3060"
    INDEX 01 01:28:61
  TRACK 47 AUDIO
    TITLE "0:"
    INDEX 01 01:30:66
  TRACK 48 AUDIO
    TITLE "8:cjc128_3061"
    INDEX 01 01:33:44
  TRACK 49 AUDIO
    TITLE "0:"
    INDEX 01 01:35:16
  TRACK 50 AUDIO
    TITLE "7:cjc128_3062"
    INDEX 01 01:35:69
  TRACK 51 AUDIO
    TITLE "0:"
    INDEX 01 01:38:22
  TRACK 52 AUDIO
    TITLE "8:cjc128_3063"
    INDEX 01 01:41:10
  TRACK 53 AUDIO
    TITLE "0:"
    INDEX 01 01:43:05
  TRACK 54 AUDIO
    TITLE "7:cjc128_3064"
    INDEX 01 01:43:52
  TRACK 55 AUDIO
    TITLE "0:"
    INDEX 01 01:45:63
  TRACK 56 AUDIO
    TITLE "8:cjc128_3065"
    INDEX 01 01:48:36
  TRACK 57 AUDIO
    TITLE "0:"
    INDEX 01 01:50:25
  TRACK 58 AUDIO
    TITLE "7:cjc128_3066"
    INDEX 01 01:51:11
  TRACK 59 AUDIO
    TITLE "0:"
    INDEX 01 01:54:19
  TRACK 60 AUDIO
    TITLE "8:cjc128_3067"
    INDEX 01 01:58:15
  TRACK 61 AUDIO
    TITLE "0:"
    INDEX 01 01:59:73
  TRACK 62 AUDIO
    TITLE "7:cjc128_3068"
    INDEX 01 02:00:55
  TRACK 63 AUDIO
    TITLE "0:"
    INDEX 01 02:03:55
  TRACK 64 AUDIO
    TITLE "8:cjc128_3069"
    INDEX 01 02:07:14
  TRACK 65 AUDIO
    TITLE "0:"
    INDEX 01 02:08:70
  TRACK 66 AUDIO
    TITLE "7:cjc128_3070"
    INDEX 01 02:09:50
  TRACK 67 AUDIO
    TITLE "0:"
    INDEX 01 02:12:72
  TRACK 68 AUDIO
    TITLE "8:cjc128_3071"
    INDEX 01 02:16:24
  TRACK 69 AUDIO
    TITLE "0:"
    INDEX 01 02:18:16
  TRACK 70 AUDIO
    TITLE "7:cjc128_3072"
    INDEX 01 02:18:70
  TRACK 71 AUDIO
    TITLE "0:"
    INDEX 01 02:23:01
  TRACK 72 AUDIO
    TITLE "8:cjc128_3073"
    INDEX 01 02:27:42
  TRACK 73 AUDIO
    TITLE "0:"
    INDEX 01 02:29:37
  TRACK 74 AUDIO
    TITLE "7:cjc128_3074"
    INDEX 01 02:30:19
  TRACK 75 AUDIO
    TITLE "0:"
    INDEX 01 02:32:63
